<svg xmlns="http://www.w3.org/2000/svg" viewBox="0 0 64 64" fill="none">
  <defs>
    <filter id="glow" x="-30%" y="-30%" width="160%" height="160%">
      <feGaussianBlur stdDeviation="1.5" result="blur"/>
      <feMerge>
        <feMergeNode in="blur"/>
        <feMergeNode in="SourceGraphic"/>
      </feMerge>
    </filter>
  </defs>
  <g filter="url(#glow)" stroke="#00e5ff" stroke-width="1.5" stroke-linecap="round" stroke-linejoin="round">
    <path d="M14 16H31M37 16H50M14 32H26M38 32H50M14 48H31M37 48H50"/>
    <path d="M14 16V32M14 32V48M32 16V26M32 38V48M50 16V32M50 32V48"/>
    <path d="M14 16L26 28M38 36L50 48M50 16L38 28M26 36L14 48" stroke-width="1" opacity="0.8"/>
    <path d="M8 8H24M40 8H56M8 56H24M40 56H56" stroke-width="1" opacity="0.45"/>
  </g>
  <g filter="url(#glow)">
    <circle cx="14" cy="16" r="2.1" fill="#00e5ff"/>
    <circle cx="32" cy="16" r="2.1" fill="#00e5ff"/>
    <circle cx="50" cy="16" r="2.1" fill="#00e5ff"/>
    <circle cx="14" cy="32" r="2.1" fill="#00e5ff"/>
    <circle cx="32" cy="32" r="4.1" fill="#00e5ff"/>
    <circle cx="50" cy="32" r="2.1" fill="#00e5ff"/>
    <circle cx="14" cy="48" r="2.1" fill="#00e5ff"/>
    <circle cx="32" cy="48" r="2.1" fill="#00e5ff"/>
    <circle cx="50" cy="48" r="2.1" fill="#00e5ff"/>
  </g>
  <g filter="url(#glow)" stroke="#00e5ff" stroke-width="1" stroke-linecap="round" stroke-linejoin="round">
    <path d="M44 6H57V15H44Z"/>
    <path d="M42 10H44M57 10H60"/>
  </g>
  <text x="47" y="12.6" font-family="monospace" font-size="5" fill="#00ff9d" filter="url(#glow)">IP</text>
</svg>

