<svg xmlns="http://www.w3.org/2000/svg" viewBox="0 0 64 64" fill="none">
  <defs>
    <filter id="glow" x="-30%" y="-30%" width="160%" height="160%">
      <feGaussianBlur stdDeviation="1.5" result="blur"/>
      <feMerge>
        <feMergeNode in="blur"/>
        <feMergeNode in="SourceGraphic"/>
      </feMerge>
    </filter>
  </defs>
  <g filter="url(#glow)" stroke="#00e5ff" stroke-width="1.5" stroke-linecap="round" stroke-linejoin="round">
    <path d="M20 16H45V55H20Z"/>
    <path d="M24 20H41V55H24Z" stroke-width="1"/>
    <path d="M18 55H47"/>
    <path d="M28 25H37M28 31H37M28 37H34" stroke-width="1" opacity="0.8"/>
    <circle cx="39" cy="36" r="1.7" fill="none"/>
    <path d="M16 14L20 16M49 14L45 16M16 58H49" stroke-width="1" opacity="0.55"/>
  </g>
  <g filter="url(#glow)" stroke="#00e5ff" stroke-width="1" stroke-linecap="round" stroke-linejoin="round">
    <path d="M23 7H42L47 12V16H18V12Z"/>
    <path d="M42 7V12H47"/>
  </g>
  <text x="25" y="14" font-family="monospace" font-size="6" fill="#00e5ff" filter="url(#glow)">443</text>
  <g filter="url(#glow)">
    <circle cx="27" cy="50" r="1.5" fill="#00ff9d"/>
    <circle cx="32" cy="50" r="1.5" fill="#00ff9d"/>
    <circle cx="37" cy="50" r="1.5" fill="#00ff9d"/>
  </g>
</svg>

