<svg xmlns="http://www.w3.org/2000/svg" viewBox="0 0 64 64" fill="none">
  <defs>
    <filter id="glow" x="-30%" y="-30%" width="160%" height="160%">
      <feGaussianBlur stdDeviation="1.5" result="blur"/>
      <feMerge>
        <feMergeNode in="blur"/>
        <feMergeNode in="SourceGraphic"/>
      </feMerge>
    </filter>
  </defs>
  <g filter="url(#glow)" stroke="#00e5ff" stroke-width="1.5" stroke-linecap="round" stroke-linejoin="round">
    <circle cx="32" cy="22" r="7"/>
    <path d="M20 52C21.5 42 25.5 35 32 35C38.5 35 42.5 42 44 52"/>
    <path d="M25 40L21 48M39 40L43 48" stroke-width="1" opacity="0.7"/>
  </g>
  <g filter="url(#glow)" stroke="#00e5ff" stroke-width="1.5" stroke-linecap="round" stroke-linejoin="round" opacity="0.7">
    <path d="M24 25L13 20"/>
    <path d="M40 25L51 20"/>
    <path d="M32 15V6"/>
    <path d="M22 35L11 39"/>
    <path d="M42 35L53 39"/>
    <path d="M32 43V55"/>
  </g>
  <g filter="url(#glow)">
    <circle cx="13" cy="20" r="2" fill="#00e5ff"/>
    <circle cx="51" cy="20" r="2" fill="#00e5ff"/>
    <circle cx="11" cy="39" r="2" fill="#00e5ff"/>
    <circle cx="53" cy="39" r="2" fill="#00e5ff"/>
    <circle cx="32" cy="55" r="2" fill="#00e5ff"/>
    <path d="M32 4L34 9L39 11L34 13L32 18L30 13L25 11L30 9Z" fill="#00ff9d"/>
  </g>
</svg>

